<?xml version="1.0" encoding="utf-8"?>
<!-- Generator: Adobe Illustrator 14.0.0, SVG Export Plug-In . SVG Version: 6.00 Build 43363)  -->
<!DOCTYPE svg PUBLIC "-//W3C//DTD SVG 1.1//EN" "http://www.w3.org/Graphics/SVG/1.1/DTD/svg11.dtd">
<svg version="1.1" id="Layer_1" xmlns="http://www.w3.org/2000/svg" xmlns:xlink="http://www.w3.org/1999/xlink" x="0px" y="0px"
	 width="882px" height="636px" viewBox="0 0 882 636" enable-background="new 0 0 882 636" xml:space="preserve">
<line fill="none" stroke="#999999" stroke-dasharray="2" x1="324.691" y1="80.008" x2="324.691" y2="549.393"/>
<line fill="none" stroke="#999999" stroke-dasharray="2" x1="536.691" y1="80.008" x2="536.691" y2="549.393"/>
<g>
	<line fill="none" stroke="#00B7FF" stroke-width="20" x1="587.27" y1="383.475" x2="692.284" y2="383.475"/>
	<polyline fill="none" stroke="#00B7FF" stroke-width="20" points="675.091,358.711 700.802,384.421 676.983,408.237 	"/>
</g>
<g>
	<line fill="none" stroke="#5FCC00" stroke-width="20" x1="587.27" y1="522.825" x2="692.284" y2="522.825"/>
	<polyline fill="none" stroke="#5FCC00" stroke-width="20" points="675.091,498.062 700.802,523.771 676.983,547.589 	"/>
</g>
<g>
	<line fill="none" stroke="#D63C00" stroke-width="20" x1="587.27" y1="453" x2="692.284" y2="453"/>
	<polyline fill="none" stroke="#D63C00" stroke-width="20" points="675.091,428.237 700.802,453.946 676.983,477.763 	"/>
</g>
<g>
	<line fill="none" stroke="#00B7FF" stroke-width="20" x1="373.27" y1="244.123" x2="478.284" y2="244.123"/>
	<polyline fill="none" stroke="#00B7FF" stroke-width="20" points="461.091,219.359 486.802,245.069 462.983,268.886 	"/>
</g>
<g>
	<line fill="none" stroke="#5FCC00" stroke-width="20" x1="373.27" y1="383.474" x2="478.284" y2="383.474"/>
	<polyline fill="none" stroke="#5FCC00" stroke-width="20" points="461.091,358.71 486.802,384.421 462.983,408.237 	"/>
</g>
<g>
	<line fill="none" stroke="#D63C00" stroke-width="20" x1="373.27" y1="313.648" x2="478.284" y2="313.648"/>
	<polyline fill="none" stroke="#D63C00" stroke-width="20" points="461.091,288.886 486.802,314.595 462.983,338.411 	"/>
</g>
<g>
	<line fill="none" stroke="#00B7FF" stroke-width="20" x1="170.27" y1="104.771" x2="275.284" y2="104.771"/>
	<polyline fill="none" stroke="#00B7FF" stroke-width="20" points="258.091,80.008 283.802,105.718 259.983,129.534 	"/>
</g>
<g>
	<line fill="none" stroke="#5FCC00" stroke-width="20" x1="170.27" y1="244.122" x2="275.284" y2="244.122"/>
	<polyline fill="none" stroke="#5FCC00" stroke-width="20" points="258.091,219.358 283.802,245.069 259.983,268.886 	"/>
</g>
<g>
	<line fill="none" stroke="#D63C00" stroke-width="20" x1="170.27" y1="174.297" x2="275.284" y2="174.297"/>
	<polyline fill="none" stroke="#D63C00" stroke-width="20" points="258.091,149.534 283.802,175.243 259.983,199.06 	"/>
</g>
</svg>
