<?xml version="1.0" encoding="utf-8"?>
<!-- Generator: Adobe Illustrator 14.0.0, SVG Export Plug-In . SVG Version: 6.00 Build 43363)  -->
<!DOCTYPE svg PUBLIC "-//W3C//DTD SVG 1.0//EN" "http://www.w3.org/TR/2001/REC-SVG-20010904/DTD/svg10.dtd">
<svg version="1.0" id="Layer_1" xmlns="http://www.w3.org/2000/svg" xmlns:xlink="http://www.w3.org/1999/xlink" x="0px" y="0px"
	 width="164.484px" height="123.332px" viewBox="0 0 164.484 123.332" enable-background="new 0 0 164.484 123.332"
	 xml:space="preserve">
<g>
	<path d="M56.134,53.375c4.05,0,7.334-3.283,7.334-7.334c0-4.05-3.284-7.334-7.334-7.334S48.8,41.991,48.8,46.041
		C48.8,50.092,52.083,53.375,56.134,53.375z M53.641,42.145c0.73,0,1.323,0.562,1.384,1.276c0.508-0.534,1.222-0.87,2.018-0.87
		c1.542,0,2.793,1.25,2.793,2.792s-1.25,2.792-2.793,2.792c-1.542,0-2.792-1.25-2.792-2.792c0-0.202,0.024-0.398,0.065-0.589
		c-0.201,0.111-0.428,0.181-0.674,0.181c-0.771,0-1.395-0.624-1.395-1.396C52.246,42.77,52.87,42.145,53.641,42.145z"/>
	<path d="M41.826,94.875h72.379c1.037-1.292,2.02-2.635,2.919-4.043H38.908C39.807,92.24,40.789,93.583,41.826,94.875z"/>
	<path d="M103.36,35.982c-5.555,0-10.059,4.504-10.059,10.059S97.805,56.1,103.36,56.1s10.06-4.504,10.06-10.059
		S108.915,35.982,103.36,35.982z M103.36,53.375c-4.05,0-7.334-3.283-7.334-7.334c0-4.05,3.284-7.334,7.334-7.334
		s7.335,3.284,7.335,7.334C110.695,50.092,107.41,53.375,103.36,53.375z"/>
	<path d="M142.816,41.547c-2.139,0-4.151,0.526-5.93,1.443c2.669,7.066,4.131,14.803,4.131,23.009c0,0.454-0.014,0.906-0.023,1.359
		c0.598,0.084,1.202,0.143,1.822,0.143c7.167,0,12.977-5.811,12.977-12.978C155.792,47.357,149.983,41.547,142.816,41.547z"/>
	<path d="M142.816,32.857c-2.387,0-4.681,0.392-6.828,1.104C124.962,13.709,103.417,0,76.596,0v8.688
		C57.133,9.162,40.083,19.337,30.078,34.56c-2.586-1.093-5.427-1.702-8.412-1.702C9.7,32.857,0,42.559,0,54.523
		C0,66.47,9.666,76.155,21.603,76.189c4.811,26.8,28.228,47.143,56.412,47.143c20.422,0,38.337-10.686,48.493-26.761
		c1.913,2.511,3.622,5.165,5.083,7.952c5.931-8.231,10.012-17.88,11.638-28.343c11.775-0.22,21.256-9.827,21.256-21.657
		C164.484,42.559,154.783,32.857,142.816,32.857z M26.225,41.386c-0.415,0.872-0.807,1.757-1.178,2.652
		c-0.086,0.207-0.164,0.419-0.248,0.627c-0.286,0.713-0.562,1.431-0.821,2.157c-0.101,0.284-0.193,0.571-0.29,0.857
		c-0.223,0.659-0.437,1.322-0.635,1.992c-0.098,0.329-0.19,0.662-0.283,0.994c-0.176,0.636-0.342,1.276-0.497,1.921
		c-0.086,0.358-0.17,0.719-0.25,1.08c-0.138,0.631-0.263,1.267-0.381,1.905c-0.069,0.375-0.14,0.749-0.201,1.126
		c-0.105,0.646-0.193,1.296-0.277,1.948c-0.048,0.373-0.102,0.743-0.142,1.118c-0.076,0.702-0.13,1.41-0.18,2.119
		c-0.023,0.327-0.057,0.652-0.075,0.981c-0.056,1.037-0.088,2.082-0.088,3.134c0,0.823,0.028,1.641,0.062,2.455
		C13.457,67.977,7.69,61.932,7.69,54.523c0-7.719,6.258-13.977,13.977-13.977c1.608,0,3.146,0.285,4.583,0.784
		C26.241,41.349,26.234,41.368,26.225,41.386z M102.3,58.84c-0.307-0.028-0.611-0.066-0.913-0.113
		c-6.159-0.951-10.881-6.26-10.881-12.686s4.723-11.734,10.882-12.686c0.301-0.047,0.605-0.085,0.912-0.113
		c0.351-0.029,0.702-0.054,1.06-0.054c7.098,0,12.854,5.755,12.854,12.853c0,7.099-5.757,12.853-12.854,12.853
		C103.002,58.894,102.651,58.869,102.3,58.84z M101.378,7.497v21.412c-8.594,0.984-15.274,8.275-15.274,17.132
		c0,8.858,6.681,16.147,15.274,17.132v10.733c-3.876-1.559-7.914-2.766-12.062-3.579c-0.807-4.334-4.753-7.728-9.721-8.313V3.061
		C87.359,3.376,94.678,4.918,101.378,7.497z M78.015,115.332c-19.559,0-36.458-11.383-44.438-27.885
		c3.522-4.316,7.672-8.095,12.292-11.231c-2.841-2.357-5.233-5.235-7.035-8.486c-0.294-0.53-0.572-1.07-0.833-1.619
		c-0.001-0.002-0.001-0.004-0.002-0.005c-0.248-0.521-0.478-1.05-0.695-1.586c-0.055-0.135-0.104-0.272-0.156-0.407
		c-0.158-0.406-0.31-0.814-0.45-1.228c-0.062-0.184-0.119-0.369-0.177-0.554c-0.119-0.374-0.231-0.751-0.335-1.131
		c-0.056-0.207-0.11-0.414-0.162-0.622c-0.092-0.367-0.176-0.737-0.253-1.11c-0.046-0.219-0.091-0.438-0.132-0.658
		c-0.069-0.374-0.128-0.753-0.184-1.132c-0.032-0.219-0.066-0.436-0.094-0.655c-0.05-0.41-0.086-0.823-0.12-1.238
		c-0.015-0.191-0.037-0.382-0.049-0.574c-0.037-0.607-0.059-1.219-0.059-1.835c0-0.74,0.037-1.471,0.09-2.196
		c0-0.003,0-0.005,0-0.008v0.001c0.141-1.912,0.461-3.774,0.945-5.569c0.004-0.015,0.009-0.029,0.013-0.045
		c0.117-0.431,0.243-0.856,0.378-1.279c0.013-0.039,0.027-0.078,0.04-0.118c0.13-0.399,0.267-0.796,0.413-1.188
		c0.022-0.059,0.046-0.116,0.069-0.174c0.143-0.375,0.29-0.747,0.447-1.114c0.024-0.056,0.05-0.109,0.075-0.165
		c0.161-0.37,0.327-0.738,0.503-1.101c4.81-9.892,14.954-16.711,26.693-16.711c4.196,0,8.181,0.885,11.797,2.457v35.841
		c-5.604,0.639-9.936,4.847-9.936,9.954c0,5.549,5.109,10.047,11.41,10.047c5.739,0,10.476-3.735,11.278-8.593
		c12.085,2.521,23.145,8.514,31.617,16.866C112.491,105.236,96.434,115.332,78.015,115.332z M142.816,71.501
		c-0.689,0-1.365-0.053-2.033-0.133c-0.823,9.77-3.883,19.119-9.014,27.479c-6.545-10.3-16.141-18.462-27.304-23.614V63.239
		c9.011-0.573,16.151-8.042,16.151-17.198c0-9.154-7.141-16.625-16.151-17.198V8.777c13.829,6.166,24.718,16.909,30.895,30.513
		c2.253-1.105,4.777-1.743,7.456-1.743c9.376,0,16.977,7.602,16.977,16.977C159.792,63.899,152.192,71.501,142.816,71.501z"/>
</g>
</svg>
